<svg viewBox="0 0 200 200" fill="none" xmlns="http://www.w3.org/2000/svg">






<g transform="matrix(4.166666666666667,0,0,4.166666666666667,0,0)"><path fill-rule="evenodd" clip-rule="evenodd" d="M9.88892 14C9.88892 12.3431 11.2321 11 12.8889 11H36C37.6569 11 39 12.3431 39 14V36C39 37.6569 37.6569 39 36 39H15C13.3432 39 12 37.6569 12 36C12 34.3431 13.3432 33 15 33H33V17H12.8889C11.2321 17 9.88892 15.6569 9.88892 14Z" fill="#1F78F0"></path><path d="M3.20443 6.79227C3.32798 5.07032 4.4499 3.73031 6.15664 3.4707C7.77502 3.22452 10.2727 3 14 3C17.7273 3 20.225 3.22452 21.8434 3.4707C23.5501 3.73031 24.672 5.07032 24.7956 6.79227C24.9048 8.31472 25 10.6131 25 14C25 17.3869 24.9048 19.6853 24.7956 21.2077C24.672 22.9297 23.5501 24.2697 21.8434 24.5293C20.225 24.7755 17.7273 25 14 25C10.2727 25 7.77502 24.7755 6.15664 24.5293C4.4499 24.2697 3.32798 22.9297 3.20443 21.2077C3.0952 19.6853 3 17.3869 3 14C3 10.6131 3.0952 8.31472 3.20443 6.79227Z" fill="#91BEFF"></path><path d="M15.0449 16.1991C15.0798 15.6247 15.4535 15.1798 16.0241 15.1054C16.4646 15.0479 17.1013 15 18 15C18.8987 15 19.5354 15.0479 19.9759 15.1054C20.5465 15.1798 20.9202 15.6247 20.9551 16.1991C20.9801 16.6099 21 17.1911 21 18C21 18.8089 20.9801 19.3901 20.9551 19.8009C20.9202 20.3753 20.5465 20.8202 19.9759 20.8946C19.5354 20.9521 18.8987 21 18 21C17.1013 21 16.4646 20.9521 16.0241 20.8946C15.4535 20.8202 15.0798 20.3753 15.0449 19.8009C15.0199 19.3901 15 18.8089 15 18C15 17.1911 15.0199 16.6099 15.0449 16.1991Z" fill="#1F78F0"></path><path d="M29.0725 10.399C29.1534 8.67451 30.2711 7.35302 31.9884 7.17627C32.9706 7.07518 34.2794 7 36 7C37.7206 7 39.0294 7.07518 40.0116 7.17627C41.7289 7.35302 42.8466 8.6745 42.9275 10.399C42.9698 11.3003 43 12.4773 43 14C43 15.5227 42.9698 16.6997 42.9275 17.601C42.8466 19.3255 41.7289 20.647 40.0116 20.8237C39.0294 20.9248 37.7206 21 36 21C34.2794 21 32.9706 20.9248 31.9884 20.8237C30.2711 20.647 29.1534 19.3255 29.0725 17.601C29.0302 16.6997 29 15.5227 29 14C29 12.4773 29.0302 11.3003 29.0725 10.399Z" fill="#91BEFF"></path><path d="M6.0725 32.399C6.15336 30.6745 7.27107 29.353 8.98838 29.1763C9.97057 29.0752 11.2794 29 13 29C14.7206 29 16.0294 29.0752 17.0116 29.1763C18.7289 29.353 19.8466 30.6745 19.9275 32.399C19.9698 33.3003 20 34.4773 20 36C20 37.5227 19.9698 38.6997 19.9275 39.601C19.8466 41.3255 18.7289 42.647 17.0116 42.8237C16.0294 42.9248 14.7206 43 13 43C11.2794 43 9.97057 42.9248 8.98838 42.8237C7.27107 42.647 6.15336 41.3255 6.0725 39.601C6.03024 38.6997 6 37.5227 6 36C6 34.4773 6.03024 33.3003 6.0725 32.399Z" fill="#91BEFF"></path><path d="M27.1346 30.5973C27.2393 28.8741 28.3605 27.5395 30.0724 27.3161C31.3939 27.1436 33.3038 27 36 27C38.6962 27 40.6061 27.1436 41.9276 27.3161C43.6395 27.5395 44.7607 28.8741 44.8654 30.5973C44.9403 31.8298 45 33.5734 45 36C45 38.4266 44.9403 40.1702 44.8654 41.4027C44.7607 43.1259 43.6395 44.4605 41.9276 44.6839C40.6061 44.8564 38.6962 45 36 45C33.3038 45 31.3939 44.8564 30.0724 44.6839C28.3605 44.4605 27.2393 43.1259 27.1346 41.4027C27.0597 40.1702 27 38.4266 27 36C27 33.5734 27.0597 31.8298 27.1346 30.5973Z" fill="#91BEFF"></path></g></svg>