<svg viewBox="0 0 200 200" fill="none" xmlns="http://www.w3.org/2000/svg">


<g transform="matrix(4.166666666666667,0,0,4.166666666666667,0,0)"><path fill-rule="evenodd" clip-rule="evenodd" d="M4.56863 20.8161C3.73294 21.8341 4.26924 23.1553 5.57806 23.3025C6.49392 23.4055 7.69955 23.516 9.26425 23.618C9.26884 23.6597 9.2739 23.7014 9.27945 23.7433C9.80314 27.6909 10.7349 33.7221 12.1227 39.2244C12.5084 40.7536 13.3503 42.2551 14.9058 42.5149C16.4948 42.7803 19.2458 43 24.0001 43C28.7544 43 31.5055 42.7803 33.0944 42.5149C34.6499 42.2551 35.4918 40.7536 35.8775 39.2245C37.2652 33.7221 38.197 27.691 38.7207 23.7433C38.7263 23.7015 38.7313 23.6597 38.7359 23.618C40.3001 23.516 41.5054 23.4056 42.4212 23.3026C43.7303 23.1554 44.2665 21.8337 43.4306 20.8156C42.0484 19.1322 39.5921 16.3827 35.4546 12.4C30.5865 7.71413 27.2698 5.58887 25.505 4.66387C24.5484 4.16244 23.4517 4.16251 22.4951 4.66402C20.7306 5.58911 17.4142 7.71439 12.5455 12.4C8.40684 16.3831 5.95055 19.1327 4.56863 20.8161Z" fill="#91BEFF"></path><path d="M30 25C30 28.3137 27.3137 31 24 31C20.6863 31 18 28.3137 18 25C18 21.6863 20.6863 19 24 19C27.3137 19 30 21.6863 30 25Z" fill="#1F78F0"></path></g></svg>