<svg viewBox="0 0 200 200" fill="none" xmlns="http://www.w3.org/2000/svg">




<g transform="matrix(4.166666666666667,0,0,4.166666666666667,0,0)"><path d="M42.9471 28.2098C43.2532 28.0743 43.5102 27.8523 43.6125 27.5336C43.7829 27.0024 44 25.9441 44 24C44 22.0559 43.7829 20.9976 43.6125 20.4664C43.5102 20.1477 43.2532 19.9257 42.9471 19.7902C41.6614 19.2215 37.931 17.6494 34.5882 17C34.5882 17 34 17.6 34 24C34 30.4 34.5882 31 34.5882 31C37.931 30.3506 41.6614 28.7785 42.9471 28.2098Z" fill="#1F78F0"></path><path d="M20.7433 42.027C20.3353 43.6586 18.666 44.6362 17.0435 44.1937L12.5305 42.9628C10.704 42.4647 9.7899 40.4202 10.6365 38.7269L15 30L23 33L20.7433 42.027Z" fill="#1F78F0"></path><path d="M7.21179 32.2546C5.87035 32.0737 4.7169 31.2499 4.46314 29.9204C4.22227 28.6584 4 26.749 4 23.9999C4 21.2509 4.22227 19.3415 4.46314 18.0795C4.7169 16.7499 5.87036 15.9262 7.21179 15.7453C12.2008 15.0725 24.8067 12.8921 33.7242 7.20231C35.9527 5.78033 38.7249 6.47761 39.1194 9.09162C39.5832 12.1648 40 16.9013 40 23.9999C40 31.0985 39.5832 35.8351 39.1194 38.9083C38.7249 41.5223 35.9527 42.2195 33.7241 40.7976C24.8067 35.1077 12.2008 32.9274 7.21179 32.2546Z" fill="#91BEFF"></path><path fill-rule="evenodd" clip-rule="evenodd" d="M4.46314 29.9205C4.7169 31.2501 5.87036 32.0738 7.21179 32.2547C7.97601 32.3578 8.91896 32.4962 10 32.6772V15.3229C8.91896 15.5039 7.97601 15.6423 7.21179 15.7454C5.87036 15.9263 4.7169 16.7501 4.46314 18.0796C4.22227 19.3416 4 21.251 4 24.0001C4 26.7491 4.22227 28.6585 4.46314 29.9205Z" fill="#1F78F0"></path></g></svg>