<svg viewBox="0 0 200 200" fill="none" xmlns="http://www.w3.org/2000/svg">



<g transform="matrix(4.166666666666667,0,0,4.166666666666667,0,0)"><path d="M3.56402 10.5738C3.76291 8.80233 4.9656 7.43418 6.71897 7.11242C9.48875 6.60414 14.7306 6 24 6C33.2694 6 38.5112 6.60414 41.281 7.11242C43.0344 7.43418 44.2371 8.80233 44.436 10.5738C44.7054 12.9734 45 17.1609 45 24C45 30.8391 44.7054 35.0266 44.436 37.4262C44.2371 39.1977 43.0344 40.5658 41.281 40.8876C38.5113 41.3959 33.2694 42 24 42C14.7306 42 9.48875 41.3959 6.71897 40.8876C4.9656 40.5658 3.76291 39.1977 3.56402 37.4262C3.29461 35.0266 3 30.8391 3 24C3 17.1609 3.29461 12.9734 3.56402 10.5738Z" fill="#91BEFF"></path><path fill-rule="evenodd" clip-rule="evenodd" d="M44.8066 32.6262C44.701 34.704 44.5655 36.272 44.436 37.4262C44.2371 39.1977 43.0344 40.5659 41.281 40.8876C38.5112 41.3959 33.2694 42.0001 24 42.0001C14.7305 42.0001 9.48872 41.3959 6.71894 40.8876C4.96557 40.5659 3.76288 39.1977 3.56399 37.4262C3.42467 36.1853 3.27861 34.4664 3.17004 32.1498C8.22841 27.2728 11.6283 24.711 13.6544 23.3961C15.1026 22.4563 16.8598 22.6214 18.1995 23.7102C19.8786 25.075 22.6515 27.4971 26.9261 31.6707C29.9719 28.9747 32.1779 27.3543 33.6544 26.3961C35.1025 25.4563 36.8598 25.6214 38.1995 26.7103C39.5831 27.8348 41.7094 29.6773 44.8066 32.6262Z" fill="#1F78F0"></path><path d="M39 17C39 19.2091 37.2091 21 35 21C32.7909 21 31 19.2091 31 17C31 14.7909 32.7909 13 35 13C37.2091 13 39 14.7909 39 17Z" fill="#1F78F0"></path></g></svg>